<svg width="16" height="16" viewBox="0 0 16 16" fill="none" xmlns="http://www.w3.org/2000/svg">
<path d="M4.31311 9.02023C4.50838 9.21549 4.82496 9.21549 5.02022 9.02023C5.21548 8.82497 5.21548 8.50839 5.02022 8.31312L4.31311 9.02023ZM2 6.00001L1.64645 5.64646C1.55268 5.74022 1.5 5.8674 1.5 6.00001C1.5 6.13262 1.55268 6.2598 1.64645 6.35356L2 6.00001ZM5.02022 3.6869C5.21548 3.49163 5.21548 3.17505 5.02022 2.97979C4.82496 2.78453 4.50838 2.78453 4.31311 2.97979L5.02022 3.6869ZM7.33333 12.1667C7.05719 12.1667 6.83333 12.3905 6.83333 12.6667C6.83333 12.9428 7.05719 13.1667 7.33333 13.1667V12.1667ZM5.02022 8.31312L2.35355 5.64646L1.64645 6.35356L4.31311 9.02023L5.02022 8.31312ZM2.35355 6.35356L5.02022 3.6869L4.31311 2.97979L1.64645 5.64646L2.35355 6.35356ZM7.33333 13.1667H10.6667V12.1667H7.33333V13.1667ZM10.6667 13.1667C12.7838 13.1667 14.5 11.4504 14.5 9.33334H13.5C13.5 10.8981 12.2315 12.1667 10.6667 12.1667V13.1667ZM14.5 9.33334C14.5 7.21625 12.7838 5.50001 10.6667 5.50001V6.50001C12.2315 6.50001 13.5 7.76854 13.5 9.33334H14.5ZM10.6667 5.50001H2V6.50001H10.6667V5.50001Z" fill="#696969"/>
</svg>
