<svg width="16" height="17" viewBox="0 0 16 17" fill="none" xmlns="http://www.w3.org/2000/svg">
<path d="M5.76093 10.0322C5.56567 10.2274 5.56567 10.544 5.76093 10.7393C5.95619 10.9346 6.27277 10.9346 6.46804 10.7393L5.76093 10.0322ZM10.2393 6.96806C10.4345 6.77279 10.4345 6.45621 10.2393 6.26095C10.044 6.06569 9.72743 6.06569 9.53217 6.26095L10.2393 6.96806ZM5.05407 8.3822C5.24934 8.18694 5.24934 7.87036 5.05407 7.67509C4.85881 7.47983 4.54223 7.47983 4.34697 7.67509L5.05407 8.3822ZM3.75771 8.97146L4.11127 9.32501L3.75771 8.97146ZM7.52895 12.7427L7.8825 13.0962L7.88257 13.0962L7.52895 12.7427ZM8.82498 12.1534C9.0202 11.9581 9.02014 11.6415 8.82484 11.4463C8.62953 11.251 8.31295 11.2511 8.11773 11.4464L8.82498 12.1534ZM7.17499 4.84658C6.97973 5.04184 6.97973 5.35842 7.17499 5.55369C7.37025 5.74895 7.68684 5.74895 7.8821 5.55369L7.17499 4.84658ZM8.47135 4.25732L8.82491 4.61088L8.47135 4.25732ZM12.2427 8.02856L11.8892 7.67501L11.8892 7.67503L12.2427 8.02856ZM10.9465 8.61784C10.7512 8.81311 10.7512 9.1297 10.9465 9.32495C11.1418 9.5202 11.4584 9.52018 11.6536 9.32491L10.9465 8.61784ZM6.46804 10.7393L10.2393 6.96806L9.53217 6.26095L5.76093 10.0322L6.46804 10.7393ZM4.34697 7.67509L3.40416 8.6179L4.11127 9.32501L5.05407 8.3822L4.34697 7.67509ZM3.40416 8.6179C2.16755 9.85451 2.16725 11.8595 3.40396 13.0962L4.11106 12.3891C3.26498 11.543 3.26508 10.1712 4.11127 9.32501L3.40416 8.6179ZM3.40396 13.0962C4.64062 14.3329 6.64584 14.3329 7.8825 13.0962L7.17539 12.3891C6.32926 13.2353 4.9572 13.2353 4.11106 12.3891L3.40396 13.0962ZM7.88257 13.0962L8.82498 12.1534L8.11773 11.4464L7.17532 12.3892L7.88257 13.0962ZM7.8821 5.55369L8.82491 4.61088L8.1178 3.90377L7.17499 4.84658L7.8821 5.55369ZM8.82491 4.61088C9.67103 3.76475 11.0428 3.76477 11.8889 4.61092L12.596 3.90381C11.3594 2.66716 9.35447 2.6671 8.1178 3.90377L8.82491 4.61088ZM11.8889 4.61092C12.7351 5.45712 12.7353 6.82893 11.8892 7.67501L12.5963 8.38211C13.833 7.14539 13.8326 5.14041 12.596 3.90381L11.8889 4.61092ZM11.8892 7.67503L10.9465 8.61784L11.6536 9.32491L12.5963 8.38209L11.8892 7.67503Z" fill="black"/>
</svg>
